<?xml version="1.0" encoding="utf-8"?>
<!-- Generator: Adobe Illustrator 23.1.0, SVG Export Plug-In . SVG Version: 6.00 Build 0)  -->
<svg version="1.1" id="Layer_1" xmlns="http://www.w3.org/2000/svg" xmlns:xlink="http://www.w3.org/1999/xlink" x="0px" y="0px"
	 width="300px" height="153px" viewBox="0 0 300 153" style="enable-background:new 0 0 300 153;" xml:space="preserve">
<style type="text/css">
	.st0{clip-path:url(#SVGID_2_);fill:#00B4BE;}
	.st1{clip-path:url(#SVGID_2_);fill:#FFFFFF;}
</style>
<g>
	<defs>
		<rect id="SVGID_1_" width="300" height="153"/>
	</defs>
	<clipPath id="SVGID_2_">
		<use xlink:href="#SVGID_1_"  style="overflow:visible;"/>
	</clipPath>
	<path class="st0" d="M136.9,86.5c2.8-2.1,4.4-6.2,4.4-11.2l0-60.6c0-6.1,2-11.4,5.5-14.6C145.9,0,145,0,144,0
		c-24.9,0-45,20.1-45,45c0,20.3,13.5,37.5,32,43.1C133,88.5,135.3,87.7,136.9,86.5"/>
	<path class="st0" d="M157.5,2c-2.1-0.6-4.6,0.2-6.4,1.5c-2.8,2.1-4.4,6.2-4.4,11.2l0,60.6c0,6.1-2,11.3-5.5,14.6
		c0.9,0.1,1.9,0.1,2.8,0.1c24.9,0,45-20.1,45-45C189,24.8,175.7,7.8,157.5,2"/>
	<path class="st1" d="M110.7,113.5c-10.9,0-19.7,8.9-19.7,19.7V151c0,1.1,0.9,2,2,2c1.1,0,2-0.9,2-2v-17.8c0-8.7,7.1-15.8,15.8-15.8
		c1.1,0,2-0.9,2-2C112.6,114.4,111.7,113.5,110.7,113.5"/>
	<path class="st1" d="M66.2,113.5c-10.4,0-15.9,5.8-19.1,10.1c-0.6,0.8-1.7,2.3-3,4.2c-3.5,4.9-9.2,13-11.5,15.3
		c-3.1,3.2-5.9,5.9-12.8,5.9c-4.2,0-8.2-1.6-11.2-4.6c-3-3-4.6-7-4.6-11.2c0-4.2,1.6-8.2,4.6-11.2c3-3,7-4.6,11.2-4.6
		c4.2,0,8.2,1.6,11.2,4.6c0.8,0.8,2,0.8,2.8,0c0.8-0.8,0.8-2,0-2.8c-3.7-3.7-8.7-5.8-14-5.8c-5.3,0-10.2,2.1-14,5.8
		C2.1,123,0,128,0,133.3c0,5.3,2.1,10.2,5.8,14c3.7,3.7,8.7,5.8,14,5.8c8.6,0,12.3-3.8,15.6-7.1c2.5-2.6,8-10.2,11.9-15.8
		c1.3-1.8,2.4-3.3,3-4.1c3-4,7.4-8.5,16-8.5c4.2,0,8.2,1.6,11.2,4.6c2.5,2.5,4.1,5.7,4.5,9.2H51.6c-1.1,0-2,0.9-2,2
		c0,5.7,1.8,10.4,5.3,14c3.7,3.7,8.7,5.8,14,5.8s10.2-2.1,14-5.8c0.8-0.8,0.8-2,0-2.8c-0.8-0.8-2-0.8-2.8,0c-3,3-7,4.6-11.2,4.6
		c-4.2,0-8.2-1.6-11.2-4.6c-2.4-2.4-3.7-5.4-4.1-9.2H84c0.5,0,1-0.2,1.4-0.6c0.4-0.4,0.6-0.9,0.6-1.4c0-5.3-2.1-10.2-5.8-14
		C76.5,115.6,71.5,113.5,66.2,113.5"/>
	<path class="st1" d="M282.2,119.3c-3.7-3.7-8.7-5.8-14-5.8c-10.4,0-15.9,5.8-19.1,10.1c-0.6,0.8-1.7,2.3-3,4.2
		c-3.5,4.9-9.2,13-11.5,15.3c-3.1,3.2-5.9,5.9-12.8,5.9c-4.2,0-8.2-1.6-11.2-4.6c-3-3-4.6-7-4.6-11.2c0-4.2,1.6-8.2,4.6-11.2
		c3-3,6.9-4.6,11.2-4.6c4.2,0,8.2,1.6,11.2,4.6c0.8,0.8,2,0.8,2.8,0c0.8-0.8,0.8-2,0-2.8c-3.7-3.7-8.7-5.8-14-5.8
		c-5.3,0-10.2,2.1-14,5.8c-3.7,3.7-5.8,8.7-5.8,14c0,5.3,2.1,10.2,5.8,14c3.7,3.7,8.7,5.8,14,5.8c8.6,0,12.3-3.8,15.6-7.1
		c2.5-2.6,8-10.2,11.9-15.8c1.3-1.8,2.4-3.3,3-4.1c3-4,7.4-8.5,16-8.5c4.2,0,8.2,1.6,11.2,4.6c2.5,2.5,4.1,5.7,4.5,9.2h-30.3
		c-1.1,0-2,0.9-2,2c0,5.7,1.8,10.4,5.3,14c3.7,3.7,8.7,5.8,14,5.8s10.2-2.1,14-5.8c0.8-0.8,0.8-2,0-2.8s-2-0.8-2.8,0
		c-3,3-7,4.6-11.2,4.6c-4.2,0-8.2-1.6-11.2-4.6c-2.4-2.4-3.7-5.4-4.1-9.2H286c0.5,0,1-0.2,1.4-0.6c0.4-0.4,0.6-0.9,0.6-1.4
		C288,128,285.9,123,282.2,119.3"/>
	<path class="st1" d="M177.3,113.5c-10.9,0-19.7,8.9-19.7,19.7V151c0,1.1,0.9,2,2,2c1.1,0,2-0.9,2-2v-17.8c0-8.7,7.1-15.8,15.8-15.8
		c8.7,0,15.8,7.1,15.8,15.8V151c0,1.1,0.9,2,2,2c1.1,0,2-0.9,2-2v-17.8C197,122.4,188.2,113.5,177.3,113.5"/>
	<path class="st1" d="M121.7,122.1c3-3,7-4.6,11.2-4.6c4.2,0,8.2,1.6,11.2,4.6c2.5,2.5,4.1,5.7,4.5,9.2h-31.3
		C117.6,127.8,119.2,124.6,121.7,122.1 M134.4,153c5.3,0,11.4-2.1,15.1-5.8c0.8-0.8,0.8-2,0-2.8c-0.8-0.8-2-0.8-2.8,0
		c-3,3-8.1,4.6-12.3,4.6c-12,0-16.5-7.6-17.2-13.8h33.4c1.1,0,2-0.9,2-2c0-5.3-2.1-10.2-5.8-14c-3.7-3.7-8.7-5.8-14-5.8
		c-5.3,0-10.2,2.1-14,5.8c-3.7,3.7-5.8,8.7-5.8,14C113.1,142.3,118.9,153,134.4,153"/>
	<path class="st1" d="M289.9,114.6h-1.4c-0.3,0-0.5-0.2-0.5-0.5c0-0.3,0.2-0.5,0.5-0.5h3.9c0.3,0,0.5,0.2,0.5,0.5
		c0,0.3-0.2,0.5-0.5,0.5H291v4.4c0,0.3-0.2,0.5-0.6,0.5c-0.3,0-0.5-0.2-0.5-0.5V114.6z M294.1,114.1c0-0.3,0.2-0.6,0.5-0.6h0.1
		c0.2,0,0.4,0.1,0.5,0.3l1.7,2.8l1.8-2.8c0.1-0.2,0.3-0.3,0.5-0.3h0.1c0.3,0,0.5,0.2,0.5,0.6v4.9c0,0.3-0.2,0.5-0.6,0.5
		c-0.3,0-0.5-0.2-0.5-0.5v-3.4l-1.4,2.1c-0.1,0.2-0.2,0.3-0.5,0.3c-0.2,0-0.3-0.1-0.5-0.3l-1.4-2.1v3.4c0,0.3-0.2,0.5-0.5,0.5
		c-0.3,0-0.5-0.2-0.5-0.5V114.1z"/>
</g>
</svg>
