<svg xmlns="http://www.w3.org/2000/svg" width="21.199" height="21.5" viewBox="0 0 21.199 21.5"><defs><style>.a,.b{fill:#666;}.b{stroke:#fff;stroke-width:0.5px;}.c{fill:#fff;}.d{stroke:none;}.e{fill:none;}</style></defs><g transform="translate(-1581 -175.5)"><path class="a" d="M24.5,12.411H16.968l3.045-3.133A7.821,7.821,0,0,0,9.034,9.167a7.639,7.639,0,0,0,0,10.878,7.8,7.8,0,0,0,10.978,0,7.237,7.237,0,0,0,2.267-5.434H24.5A10.379,10.379,0,0,1,21.568,21.6a10.06,10.06,0,0,1-14.134,0A9.822,9.822,0,0,1,7.412,7.622a9.986,9.986,0,0,1,14.056,0L24.5,4.5Zm-9.445-2.356v4.722l3.889,2.311-.8,1.344L13.39,15.611V10.056Z" transform="translate(1577.698 171)"/><g transform="translate(1581 186.938)"><g class="b" transform="translate(0 0.062)"><circle class="d" cx="5" cy="5" r="5"/><circle class="e" cx="5" cy="5" r="4.75"/></g><g transform="translate(2.51 1.836)"><path class="c" d="M7.8,3.952H5.944V2.1a.169.169,0,0,0-.169-.169H4.764a.169.169,0,0,0-.169.169V3.952H2.739a.169.169,0,0,0-.169.169V5.133a.169.169,0,0,0,.169.169H4.595V7.157a.169.169,0,0,0,.169.169H5.776a.169.169,0,0,0,.169-.169V5.3H7.8a.169.169,0,0,0,.169-.169V4.121A.169.169,0,0,0,7.8,3.952Z" transform="translate(-2.571 -1.928)"/></g></g></g></svg>