<svg xmlns="http://www.w3.org/2000/svg" viewBox="0 0 161.29 53.5"><defs><style>.cls-1{fill:#fff;}</style></defs><title>hub-logo-white</title><g id="Layer_2" data-name="Layer 2"><g id="Layer_1-2" data-name="Layer 1"><path class="cls-1" d="M50.73,5a4.63,4.63,0,0,0-4.49,3.48H44.46a4.34,4.34,0,0,0-4.34,4.33v6.42a8.41,8.41,0,0,0-6-2.52,8.08,8.08,0,0,0-2.69.45V7.82A4.33,4.33,0,0,0,27.24,3.5h0a4.62,4.62,0,1,0,0,2.32,2,2,0,0,1,1.88,2V14.9h0a9.2,9.2,0,0,0-15.75,7.44H7.81a2,2,0,0,1-2-2V15.88a4.63,4.63,0,1,0-2.31,0h0v4.43a4.33,4.33,0,0,0,4.33,4.33H9a7.68,7.68,0,0,0,5.5,13h1.3V41.6c0,1.6-1.2,2.26-1.61,2.78a4.57,4.57,0,0,0-2.5-.75,4.64,4.64,0,1,0,4.62,4.64,4.41,4.41,0,0,0-.56-2.19c.38-.5,2.36-1.74,2.36-4.48V37.69h9.59v3.2a4.64,4.64,0,1,0,2.3,0h0v-3.2h9V41.6a5.09,5.09,0,0,0,1.5,3.61l1.09,1.09a4.5,4.5,0,0,0-.8,2.57,4.64,4.64,0,1,0,4.65-4.64,4.48,4.48,0,0,0-2.13.53l-1.18-1.18a2.78,2.78,0,0,1-.82-2V37.69h1.93a7.69,7.69,0,0,0,0-15.37c-.24,0-.49,0-.73,0h0v-9.5a2,2,0,0,1,2-2h1.78A4.63,4.63,0,1,0,50.73,5ZM22.76,7a2.33,2.33,0,1,1,2.33-2.32A2.33,2.33,0,0,1,22.76,7ZM4.64,13.72A2.33,2.33,0,1,1,7,11.4,2.32,2.32,0,0,1,4.64,13.72Zm7,36.88a2.33,2.33,0,1,1,2.28-2.75,2,2,0,0,1,0,.42A2.33,2.33,0,0,1,11.65,50.6Zm33.71-4.06A2.33,2.33,0,1,1,43,48.87,2.33,2.33,0,0,1,45.36,46.54ZM31.14,45.38a2.33,2.33,0,0,1-4.66,0,2.33,2.33,0,1,1,4.66,0Zm12-20.76a5.39,5.39,0,0,1,0,10.77H14.46a5.37,5.37,0,1,1,.28-10.74,1.16,1.16,0,0,0,1.16-1.16,1.61,1.61,0,0,0,0-.25,7.59,7.59,0,0,1-.25-1.9,6.93,6.93,0,0,1,6.92-6.93c5.26,0,6.55,4.91,6.66,5a1.17,1.17,0,0,0,.65.68h0l.11,0a1.11,1.11,0,0,0,.6,0h0a7.16,7.16,0,0,1,3.51-1,6.18,6.18,0,0,1,6,4.93s0,.07,0,.11a1.06,1.06,0,0,0,.49.65,1.2,1.2,0,0,0,.85.13.11.11,0,0,0,.08,0A5.75,5.75,0,0,1,43.16,24.62ZM50.73,12a2.32,2.32,0,1,1,2.32-2.31A2.33,2.33,0,0,1,50.73,12Z"/><path class="cls-1" d="M13.34,22.74c-.2.16-.83,0-2.07.48A8,8,0,0,0,9,24.64H9a7.68,7.68,0,0,0,5.5,13h28.7a7.69,7.69,0,0,0,0-15.37l-.73,0s-.49-.82-1-1.55a15.1,15.1,0,0,0-1.31-1.53,8.41,8.41,0,0,0-6-2.52,8.08,8.08,0,0,0-2.69.45c-.21.11-.46.17-.73-.3s-1.58-2-1.58-2a9.2,9.2,0,0,0-15.75,7.44A.3.3,0,0,1,13.34,22.74Zm29.82,1.88a5.39,5.39,0,0,1,0,10.77H14.46a5.37,5.37,0,1,1,.28-10.74,1.16,1.16,0,0,0,1.16-1.16,1.61,1.61,0,0,0,0-.25,7.59,7.59,0,0,1-.25-1.9,6.93,6.93,0,0,1,6.92-6.93c5.26,0,6.55,4.91,6.66,5a1.17,1.17,0,0,0,.65.68h0l.11,0a1.11,1.11,0,0,0,.6,0h0a7.16,7.16,0,0,1,3.51-1,6.18,6.18,0,0,1,6,4.93s0,.07,0,.11a1.06,1.06,0,0,0,.49.65,1.2,1.2,0,0,0,.85.13.11.11,0,0,0,.08,0A5.75,5.75,0,0,1,43.16,24.62Z"/><path class="cls-1" d="M96.47,10.24H94.66a1.38,1.38,0,0,0-1.38,1.38V24.69H75.41V11.62A1.38,1.38,0,0,0,74,10.24H72.21a1.42,1.42,0,0,0-1.38,1.38V42.39a1.42,1.42,0,0,0,1.38,1.38H74a1.38,1.38,0,0,0,1.39-1.38V28.81H93.28V42.39a1.38,1.38,0,0,0,1.38,1.38h1.81a1.42,1.42,0,0,0,1.39-1.38V11.62A1.42,1.42,0,0,0,96.47,10.24Z"/><path class="cls-1" d="M129.7,10.24h-1.76a1.38,1.38,0,0,0-1.39,1.38V31.28c0,5.18-3.34,8.66-8.33,8.66S110,36.42,110,31.19V11.62a1.38,1.38,0,0,0-1.38-1.38h-1.77a1.42,1.42,0,0,0-1.38,1.38V31.47a12.35,12.35,0,0,0,12.77,12.77c7.46,0,12.87-5.37,12.87-12.77V11.62A1.42,1.42,0,0,0,129.7,10.24Z"/><path class="cls-1" d="M156.21,26.66a8.81,8.81,0,0,0,4.06-7.37c0-5.33-4.08-9-9.93-9H140.06a1.38,1.38,0,0,0-1.38,1.38V42.39a1.38,1.38,0,0,0,1.38,1.38H151c6,0,10.3-4,10.3-9.47A8.49,8.49,0,0,0,156.21,26.66Zm.18,7.6c0,3.23-2.27,5.4-5.64,5.4h-7.68V29h7.5C153.89,29,156.39,31.28,156.39,34.26Zm-13.22-9.43V14.45h6.56c3.45,0,5.59,1.94,5.59,5.07s-2.24,5.31-5.59,5.31Z"/></g></g></svg>