<svg xmlns="http://www.w3.org/2000/svg" width="94.959" height="94.959" viewBox="0 0 94.959 94.959"><defs><style>.a{fill:#a0a1a2;}.b{fill:#59b4d9;}.c{fill:#fff;opacity:0.2;}</style></defs><path class="a" d="M38.174,88.312H6.647V56.975H13.1a16.729,16.729,0,0,1-1.14-6.267v-.38H0V94.959H44.821V68.37H38.174ZM82.614,56.975h5.7V88.5H56.785V68.56H50.138v26.4H94.959V50.328H80.905A13.38,13.38,0,0,1,82.614,56.6ZM6.647,37.984V6.647H38.174V24.879a17.621,17.621,0,0,1,6.647-3.039V0H0V44.631H12.914a18.023,18.023,0,0,1,4.178-6.457Zm50.138-16.9V6.647H88.312V38.174H74.448a23.031,23.031,0,0,1,.95,6.457v.19H94.959V0H50.138V20.7c.57,0,.95-.19,1.519-.19A47.042,47.042,0,0,1,56.785,21.081Z"/><path class="b" d="M69.484,44.267a7.011,7.011,0,0,0-7.027-7.027h-.95a20.647,20.647,0,0,0,.76-4.938A18.69,18.69,0,0,0,25.8,26.414a14.815,14.815,0,0,0-4.178-.76,12.916,12.916,0,0,0,0,25.829h41.4a7.222,7.222,0,0,0,6.457-7.217" transform="translate(8.003 12.139)"/><path class="c" d="M28.372,51.484a12.91,12.91,0,0,1,6.267-21.651,10.492,10.492,0,0,1,4.178-.19A18.838,18.838,0,0,1,49.263,14.45a17.9,17.9,0,0,0-5.7-.95A18.587,18.587,0,0,0,25.9,26.414a14.815,14.815,0,0,0-4.178-.76,12.916,12.916,0,0,0,0,25.829Z" transform="translate(8.093 12.139)"/></svg>