<svg xmlns="http://www.w3.org/2000/svg" width="164.031" height="86.497" viewBox="0 0 164.031 86.497"><defs><style>.a{fill:#bbe6fb;}.b{fill:#fff;}.c{fill:#373535;}.d{fill:#1287b1;}.e{fill:rgba(55,53,53,0.35);}</style></defs><g transform="translate(-0.9 -0.2)"><path class="a" d="M147.553,33.484c1.216,14.021-20.872,27.4-49.363,29.835s-52.5-6.979-53.717-21,20.872-27.4,49.363-29.835c28.427-2.433,52.5,6.915,53.717,21" transform="translate(-15.658 -4.281)"/><path class="b" d="M103.373,15.2c-10.884-.192-23.561,4.162-33.037,8.2A27.734,27.734,0,0,0,68.8,32.355C68.8,49,83.846,62.511,102.413,62.511S136.09,49.066,136.09,32.355a27.845,27.845,0,0,0-4.162-14.534A221.46,221.46,0,0,0,103.373,15.2" transform="translate(-24.427 -5.393)"/><path class="b" d="M106.182,15.182c-6.018-.384-16.39,2.753-25.034,5.89A24.968,24.968,0,0,0,79.1,31.124c0,14.6,13.253,26.442,27.21,26.442,13.893,0,26.186-11.845,27.21-26.442a22.6,22.6,0,0,0-3.585-13.061c-8.9-1.537-18.375-2.5-23.753-2.881" transform="translate(-28.133 -5.378)"/><path class="c" d="M94.818,29.37c.768-1.665,1.857-2.433,2.945-3.777a8.385,8.385,0,0,1-.384-1.729,2.937,2.937,0,0,1,2.945-2.945,2.991,2.991,0,0,1,1.088.192,21.531,21.531,0,0,1,17.927-3.906c.576.128,1.152.32,1.729.448a25.611,25.611,0,0,0-18.631,5.378,8.379,8.379,0,0,1,.576,1.793c0,1.665-1.088,2.049-2.689,2.049a3.252,3.252,0,0,1-1.088-.192A29.24,29.24,0,0,0,96.1,32.827c2.753,2.433,5.186,3.329,8.387,4.546,0-.128.128-.32.128-.448a9.27,9.27,0,0,1,9.284-8.963,8.95,8.95,0,0,1,8.835,7.427c2.241-1.409,4.354-2.5,5.954-4.546a5.193,5.193,0,0,1-.768-2.433,2.705,2.705,0,0,1,2.689-2.689,2.4,2.4,0,0,1,.64.064,23.271,23.271,0,0,0,1.857-5.378c-7.747-5.762-22.729-4.93-22.729-4.93s-11.909-.64-19.976,3.329A24.391,24.391,0,0,0,94.818,29.37" transform="translate(-32.198 -5.481)"/><path class="c" d="M134.62,30.031a4.767,4.767,0,0,1,1.088,1.345c.7,1.28-.7,2.5-2.241,2.5a1.09,1.09,0,0,1-.448-.064,28.506,28.506,0,0,1-7.235,7.683,21.934,21.934,0,0,1,10.756,4.738,32.171,32.171,0,0,0,3.841-14.406,10.317,10.317,0,0,0-4.034-8.323c-.064,1.985-1.152,4.738-1.729,6.531M102.1,54.872c1.345-3.713,4.61-6.531,7.747-9.027a17.12,17.12,0,0,1-1.409-2.881A22.21,22.21,0,0,1,98.7,36.817c0,.064-.064.192-.064.256a18.787,18.787,0,0,0-.32,6.531,3.92,3.92,0,0,1,3.2,3.841,6.22,6.22,0,0,1-1.793,3.521,18.128,18.128,0,0,0,2.369,3.905" transform="translate(-34.994 -8.382)"/><path class="c" d="M94.978,56.9c-1.6-1.6-2.689-4.738-3.713-6.723-.192,0-.384.064-.576.064-2.177,0-4.418-1.793-3.906-3.906a3.879,3.879,0,0,1,2.369-2.561,25.992,25.992,0,0,1,.192-8.323c.128-.7.512-1.024.7-1.729a22.959,22.959,0,0,1-3.905-12.613V20.6C82.109,22.649,79.1,25.786,79.1,30.78c0,11.076,6.4,21.96,15.878,26.186V56.9m23.369-15.3a9.019,9.019,0,0,1-8.451,6.018A8.588,8.588,0,0,1,104.39,45.7a25.612,25.612,0,0,0-7.427,10.5,17.442,17.442,0,0,0,1.857,1.921c2.177.576,5.25,0,7.619,0,9.54,0,18.055-4.226,22.921-11.717-3.329-2.3-7.171-4.482-11.012-4.8" transform="translate(-28.133 -7.339)"/><path class="d" d="M94.49,31.262a23.235,23.235,0,0,1,2.753-4.546,2.9,2.9,0,0,1-.192-1.024A2.937,2.937,0,0,1,100,22.747a2.991,2.991,0,0,1,1.088.192,21.531,21.531,0,0,1,17.927-3.906c.576.128,1.152.32,1.729.448a23.857,23.857,0,0,0-17.991,5.058A3.739,3.739,0,0,1,103,25.692a2.937,2.937,0,0,1-2.945,2.945,3.252,3.252,0,0,1-1.088-.192,19.327,19.327,0,0,0-2.689,4.93,22.213,22.213,0,0,0,8.451,5.7v-.448a8.966,8.966,0,0,1,17.8-1.537,22.982,22.982,0,0,0,5.826-5.314,2.56,2.56,0,0,1-.64-1.665,2.705,2.705,0,0,1,2.689-2.689,2.4,2.4,0,0,1,.64.064,23.27,23.27,0,0,0,1.857-5.378c-7.747-5.762-22.729-4.93-22.729-4.93s-11.909-.64-19.976,3.329a22.623,22.623,0,0,0,4.29,10.756" transform="translate(-32.126 -6.092)"/><path class="d" d="M134.86,31.2a2.625,2.625,0,0,1,.9,1.985,2.705,2.705,0,0,1-2.689,2.689,1.089,1.089,0,0,1-.448-.064,21.189,21.189,0,0,1-6.531,6.531,21.525,21.525,0,0,1,10.5,4.738,27.238,27.238,0,0,0,3.457-13.253,10.317,10.317,0,0,0-4.034-8.323,20.957,20.957,0,0,1-1.152,5.7M102.335,56.424a21.314,21.314,0,0,1,6.787-9.476,7.853,7.853,0,0,1-1.088-2.049A22.21,22.21,0,0,1,98.3,38.753c0,.064-.064.192-.064.256a18.787,18.787,0,0,0-.32,6.531,3.9,3.9,0,0,1,1.921,6.723,21.1,21.1,0,0,0,2.5,4.162" transform="translate(-34.85 -9.102)"/><path class="d" d="M94.834,57.557a21.66,21.66,0,0,1-3.97-5.378c-.192,0-.384.064-.576.064a3.88,3.88,0,0,1-3.906-3.906,3.953,3.953,0,0,1,2.177-3.521,20.483,20.483,0,0,1,.384-7.363c.128-.7.384-1.409.576-2.113a21.6,21.6,0,0,1-3.777-12.229V22.6C81.709,24.649,78.7,27.786,78.7,32.78A27.172,27.172,0,0,0,94.77,57.621c.064,0,.064,0,.064-.064M117.947,43.6a9.019,9.019,0,0,1-8.451,6.018A8.588,8.588,0,0,1,103.99,47.7a22.188,22.188,0,0,0-6.979,9.54c.64.7,1.345,1.345,2.049,1.985a26.793,26.793,0,0,0,6.851.9A27.241,27.241,0,0,0,128.767,47.7a21.813,21.813,0,0,0-10.82-4.1" transform="translate(-27.989 -8.058)"/><path class="b" d="M125.462,41.907l8.259-1.985-8.323-.448,6.787-5.122L124.5,37.1l5.186-7.235-7.235,4.8,2.5-8.451L120.02,33.2l-.128-8.835-3.265,7.875L113.938,24.3l.128,9.348-4.674-8.387,2.561,8.9-7.619-5.506,5.954,7.491-9.476-3.457,7.427,5.506-9.54.32,9.8,2.5-9.8,2.113,9.668.7-8.131,5.186L108.624,46,102.8,53.367l7.363-5.954-2.625,9.86,5.7-8.067-.768,9.476,3.2-8.643,2.753,9.027.64-9.091,4.1,7.747-2.433-8.835,7.427,5.762-4.8-7.363,8.2,3.2L125.27,44.34l8.387.64Z" transform="translate(-35.184 -8.67)"/><path class="e" d="M2.8,50.058c25.674-25.674,46.162-33.613,64.793-37.2,2.433-.448,2.945-5.89,2.945-5.89s.32,3.97,2.049,4.482,3.97-6.21,3.97-6.21-2.049,6.018,0,6.4c2.049.32,5.89-5.89,5.89-5.89s-1.537,5.314-.512,5.7c1.024.32,6.21-7.747,6.21-7.747s-3.073,5.314-.192,5.89c2.945.512,7.235-3.649,7.235-3.649S91.858,9.723,93.331,10.3c6.4,2.241,11.524-6.018,11.524-6.018a28.753,28.753,0,0,1-4.29,7.619c6.723,1.729,11.717-8.387,11.717-8.387l-4.994,10.116C109.849,14.909,120.157,3,120.157,3s-5.314,9.284-8.451,11.2c1.729,1.409,7.939-4.162,7.939-4.162s-4.994,6.21-3.073,6.531C119.325,18.814,129.5,5.049,129.5,5.049a69.676,69.676,0,0,1-9.8,14.47c4.866,2.5,17.031-13.189,17.031-13.189s-.32,4.994-9.156,12.933c6.531-.832,14.982-13.253,14.982-13.253a41.116,41.116,0,0,1-10.5,15.878c6.4-.64,16.71-16.518,16.71-16.518s-3.97,11.012-12.037,17.415c8.963,1.985,21.9-11.4,21.9-11.4s-5.058,9.476-11.717,13.381c7.427,2.817,17.607-8.9,17.607-8.9s-10.18,15.686-26.378,14.982C132.834,30.595,116.764,14.717,82.319,16,36.733,17.662,27.129,37,2.8,50.058" transform="translate(-0.684 -1.007)"/><path class="c" d="M4.4,47.13c25.674-25.674,46.162-33.613,64.793-37.2,2.433-.448,2.945-5.89,2.945-5.89s.32,3.97,2.049,4.482,3.97-6.21,3.97-6.21-2.049,6.018,0,6.4c2.049.32,5.89-5.89,5.89-5.89s-1.537,5.314-.512,5.7c1.024.32,6.21-7.747,6.21-7.747s-3.073,5.314-.192,5.89c2.945.512,7.235-3.649,7.235-3.649s-3.329,3.777-1.857,4.354c6.4,2.241,11.524-6.018,11.524-6.018a28.753,28.753,0,0,1-4.29,7.619C108.888,10.7,113.882.584,113.882.584L108.888,10.7C111.449,12.109,121.821.2,121.821.2s-5.314,9.284-8.451,11.2c1.729,1.216,7.939-4.29,7.939-4.29s-4.994,6.21-3.073,6.531c2.753,2.241,12.933-11.524,12.933-11.524a71.434,71.434,0,0,1-9.86,14.47C126.175,19.023,138.4,3.337,138.4,3.337s-.32,4.994-9.156,12.933c6.531-.832,14.982-13.253,14.982-13.253A41.116,41.116,0,0,1,133.73,18.9c6.4-.64,16.71-16.518,16.71-16.518s-3.97,11.012-12.037,17.415c8.963,1.985,21.9-11.4,21.9-11.4s-5.058,9.476-11.717,13.381c7.427,2.817,17.607-8.9,17.607-8.9s-10.18,15.686-26.378,14.982C134.5,27.6,118.428,11.724,83.983,13,38.4,14.734,28.729,34.005,4.4,47.13" transform="translate(-1.259)"/><path class="e" d="M1.8,68.934c13.573,6.787,25.994-1.024,41.616,3.393,11.909,3.329,26.378,7.491,46.034,4.61,19.656-2.817,36.43-11.4,44.5-26.634,2.5-6.787,12.677,1.537,12.677,1.537s-7.427-3.073-7.235-1.665c.192,1.473,11.14,6.531,11.14,6.531s-9.924-3.073-9.284-.768c.576,2.3,12.421,11.652,12.421,11.652s-13.509-10.116-14.6-8.707c-1.152,1.409,5.7,6.979,5.7,6.979s-11.268-6.979-15.238-4.93c-2.881,1.473,11.717,11.012,11.717,11.012s-9.476-7.235-11.717-5.314,10.692,17.415,10.692,17.415-14.726-15.878-16.2-15.11,4.034,8.387,4.034,8.387-7.171-7.939-9.156-6.595c-1.985,1.409,10.372,21.96,10.372,21.96s-13.381-21.064-18.951-17.543c8.643,19.015,5.442,21.7,5.442,21.7s-1.088-19.4-11.909-18.887c-5.442.256,2.561,14.47,2.561,14.47s-7.363-13-12.293-12.741c9.027,17.159,5.826,24.073,5.826,24.073S101.422,89.1,89.194,80.971c4.674,4.162-2.945,22.793-2.945,22.793s6.659-27.467-4.93-22.217c-1.857.832-.128,13.7-.128,13.7s-2.3-14.726-5.826-13.957c-2.049.448-12.933,20.424-12.933,20.424s8.9-21.576,6.21-20.68c-1.985.64-5.7,9.54-5.7,9.54s1.793-8.771,0-9.284-11.909,9.284-11.909,9.284,7.491-8.771,6.21-10.628c-1.985-2.753-4.226-2.881-6.979-1.793-3.97,1.537-9.284,8.771-9.284,8.771S46.3,79.563,45.4,76.874c-1.473-4.418-16.774,8.515-16.774,8.515s9.027-8.515,6.979-10.372c-2.049-1.793-13.317-1.28-16.774-1.28-10.308.128-13.893-2.3-17.031-4.8" transform="translate(-0.324 -17.067)"/><path class="c" d="M.9,66.534c13.573,6.787,25.994-1.024,41.616,3.393,11.909,3.329,26.378,7.491,46.034,4.61,19.656-2.817,36.43-11.4,44.5-26.634,2.5-6.787,12.677,1.537,12.677,1.537s-7.427-3.073-7.235-1.665c.192,1.473,11.14,6.531,11.14,6.531s-9.924-3.073-9.284-.768c.576,2.3,12.421,11.652,12.421,11.652s-13.381-10.18-14.47-8.771S144,63.4,144,63.4s-11.268-6.979-15.238-4.93c-2.881,1.473,11.717,11.012,11.717,11.012S131,62.245,128.757,64.166,139.449,81.58,139.449,81.58,124.788,65.7,123.315,66.47s4.034,8.387,4.034,8.387-7.3-7.875-9.284-6.531c-1.985,1.409,10.308,21.96,10.308,21.96s-13.381-21.128-18.887-17.607c8.707,19.079,5.442,21.768,5.442,21.768s-1.088-19.4-11.909-18.887c-5.442.256,2.561,14.47,2.561,14.47S98.281,77.1,93.352,77.355c9.027,17.159,5.826,24.073,5.826,24.073s1.473-14.662-10.756-22.793c4.674,4.162-2.945,22.793-2.945,22.793s6.659-27.467-4.93-22.217c-1.857.832-.128,13.7-.128,13.7s-2.3-14.726-5.826-13.957c-2.049.448-12.933,20.424-12.933,20.424s8.9-21.576,6.21-20.68c-1.985.64-5.7,9.54-5.7,9.54s1.793-8.771,0-9.284-11.909,9.284-11.909,9.284,7.491-8.771,6.21-10.628c-1.985-2.753-4.226-2.881-6.979-1.793-3.97,1.537-9.284,8.771-9.284,8.771s5.314-7.363,4.418-10.052c-1.473-4.418-16.774,8.515-16.774,8.515s9.027-8.515,6.979-10.372c-2.049-1.793-13.317-1.28-16.774-1.28C7.623,71.464,4.037,69.031.9,66.534" transform="translate(0 -16.203)"/></g></svg>