<svg xmlns="http://www.w3.org/2000/svg" width="110.482" height="101.601" viewBox="0 0 110.482 101.601"><defs><style>.a{fill:#0078d3;}.b{fill:#51e5ff;}</style></defs><g transform="translate(0.02 0.1)"><path class="a" d="M107.977,68.836A36.481,36.481,0,1,1,63.94,41.957a.084.084,0,0,0,.073,0A36.33,36.33,0,0,1,107.933,68.6.835.835,0,0,0,107.977,68.836Z" transform="translate(-16.655 -23.329)"/><path class="b" d="M16.436,39.253a1.121,1.121,0,0,1-1.121-1.121h0A12.775,12.775,0,0,0,2.551,25.419a1.121,1.121,0,0,1,0-2.242A12.753,12.753,0,0,0,15.3,10.491a1.121,1.121,0,0,1,2.242,0A12.775,12.775,0,0,0,30.3,23.221a1.121,1.121,0,0,1,0,2.242,12.736,12.736,0,0,0-12.753,12.68A1.121,1.121,0,0,1,16.436,39.253Z" transform="translate(-1.45 -9.47)"/><path class="a" d="M161.6,176.646a.661.661,0,0,1-.661-.661,7.629,7.629,0,0,0-7.64-7.59.661.661,0,1,1,0-1.323h0a7.64,7.64,0,0,0,7.64-7.59.661.661,0,0,1,1.323,0,7.612,7.612,0,0,0,7.64,7.59.661.661,0,0,1,.661.661.673.673,0,0,1-.661.661h0a7.64,7.64,0,0,0-7.64,7.59.645.645,0,0,1-.661.661Z" transform="translate(-67.898 -75.145)"/><path class="b" d="M57.461,105.516H56A9.625,9.625,0,0,0,48.879,93.9a8.649,8.649,0,0,0-2.332-.258H36.715a36.576,36.576,0,0,0,.353,15.561,36.178,36.178,0,0,0,8.207,15.7H57.461a9.675,9.675,0,0,0,9.714-9.664h0a9.692,9.692,0,0,0-9.714-9.714Z" transform="translate(-16.661 -46.5)"/><path class="b" d="M121.036,112.792a8.246,8.246,0,0,0-8.251,8.179,7.954,7.954,0,0,0,.992,3.89,8.19,8.19,0,0,0,2.478,16.009h5.538q.813-.426,1.626-.919a36.627,36.627,0,0,0,17.024-27.181H121.036Z" transform="translate(-48.29 -54.909)"/><path class="b" d="M131.461,77.217a36.207,36.207,0,0,0-.846-4.9.836.836,0,0,1-.045-.235,36.173,36.173,0,0,0-17.686-23.134l-.118-.073h-3.986a6.525,6.525,0,0,0-6.53,6.508,6.648,6.648,0,0,0,.213,1.682H98.293a10.09,10.09,0,1,0,0,20.135h33.168v.045Z" transform="translate(-39.286 -26.828)"/><path d="M111.456,43.116c-3.487-5.706-12.237-7.024-25.3-3.817a105.943,105.943,0,0,0-12,3.817,36.033,36.033,0,0,1,7.069,4.529c2.242-.729,4.406-1.39,6.486-1.883a45.024,45.024,0,0,1,10.651-1.508c4.266,0,6.648,1.059,7.427,2.332,1.295,2.125.1,7.685-7.495,16.458-1.345,1.558-2.876,3.134-4.484,4.737A152.214,152.214,0,0,1,66.343,88.858,151.748,151.748,0,0,1,34.985,103.78C21.762,108.1,12.731,108,10.724,104.7s2-11.385,11.85-21.195a35.376,35.376,0,0,1-.8-8.487c-15.7,14.193-20.8,26.5-16.738,33.146,2.125,3.464,6.766,5.421,13.554,5.421A68.617,68.617,0,0,0,42.048,108.4a168.077,168.077,0,0,0,27.7-13.885A167.414,167.414,0,0,0,94.679,76.055a99.351,99.351,0,0,0,8.582-8.677C112.14,57.192,114.943,48.823,111.456,43.116Z" transform="translate(-2.448 -21.871)"/></g></svg>