<svg xmlns="http://www.w3.org/2000/svg" width="62.389" height="101.285" viewBox="0 0 62.389 101.285">
  <path id="apache_kafka-icon" d="M55.18,56.1a13.167,13.167,0,0,0-9.9,4.495l-6.2-4.393a16.713,16.713,0,0,0,.035-11.5L45.3,40.353a13.176,13.176,0,1,0-2.773-4.979l-6.194,4.349a17.07,17.07,0,0,0-10.559-6.14v-7.47a13.2,13.2,0,1,0-5.672-.047v7.6a17.013,17.013,0,0,0,.117,33.544v7.986a13.2,13.2,0,1,0,5.669,0V67.206A17.047,17.047,0,0,0,36.272,61.17l6.245,4.422A13.2,13.2,0,1,0,55.18,56.1Zm0-30.873a6.4,6.4,0,1,1-6.4,6.4A6.41,6.41,0,0,1,55.18,25.226ZM16.654,13.205a6.4,6.4,0,1,1,6.4,6.4A6.408,6.408,0,0,1,16.654,13.205Zm12.8,74.881a6.4,6.4,0,1,1-6.4-6.4A6.407,6.407,0,0,1,29.454,88.086Zm-6.4-28.746a8.926,8.926,0,1,1,8.926-8.926A8.934,8.934,0,0,1,23.051,59.34Zm32.126,16.37a6.4,6.4,0,1,1,6.4-6.4A6.41,6.41,0,0,1,55.177,75.711Z" transform="translate(-6)"/>
</svg>
