<svg xmlns="http://www.w3.org/2000/svg" width="133.494" height="88.996" viewBox="0 0 133.494 88.996"><defs><style>.a{fill:#ffc220;}.b{fill:#fff;}</style></defs><g transform="translate(-893 -514)"><g transform="translate(870 182)"><path class="a" d="M107.63,39.6A41.675,41.675,0,0,0,29.758,28.472,33.36,33.36,0,0,0,33.374,95h72.309a27.732,27.732,0,0,0,1.947-55.4Z" transform="translate(23 326)"/></g><path class="b" d="M60.077,19.017,47.06,32.034h9.763A19.541,19.541,0,0,1,37.3,51.56a19.1,19.1,0,0,1-9.112-2.278l-4.751,4.751a25.988,25.988,0,0,0,39.9-22h9.763ZM17.771,32.034A19.541,19.541,0,0,1,37.3,12.509a19.1,19.1,0,0,1,9.112,2.278l4.751-4.751a25.988,25.988,0,0,0-39.9,22H1.5L14.517,45.051,27.534,32.034Z" transform="translate(922.5 530.932)"/></g></svg>