<svg xmlns="http://www.w3.org/2000/svg" xmlns:xlink="http://www.w3.org/1999/xlink" width="99.565" height="108.977" viewBox="0 0 99.565 108.977">
  <defs>
    <linearGradient id="linear-gradient" x1="-4.183" y1="0.143" x2="-3.174" y2="0.794" gradientUnits="objectBoundingBox">
      <stop offset="0" stop-color="#909ca9"/>
      <stop offset="1" stop-color="#ededee"/>
    </linearGradient>
    <linearGradient id="linear-gradient-2" x1="-8.133" y1="37.388" x2="-6.64" y2="37.388" gradientUnits="objectBoundingBox">
      <stop offset="0" stop-color="#939fab"/>
      <stop offset="1" stop-color="#dcdee1"/>
    </linearGradient>
    <radialGradient id="radial-gradient" cx="0.443" cy="0.439" r="0.128" gradientTransform="matrix(-0.691, -0.149, -0.208, 1.978, -19.227, -9.973)" gradientUnits="objectBoundingBox">
      <stop offset="0" stop-color="#ee352c"/>
      <stop offset="1" stop-color="#a91d22"/>
    </radialGradient>
  </defs>
  <g id="Group_7787" data-name="Group 7787" transform="translate(0)">
    <path id="Path_5902" data-name="Path 5902" d="M395.377,463.277,373.553,470.4l-18.987,8.38-5.312,1.4c-1.353,1.287-2.771,2.59-4.305,3.91-1.683,1.452-3.25,2.771-4.454,3.728a33.228,33.228,0,0,0-4.322,4.289,19.441,19.441,0,0,0-3.2,5.411,9.083,9.083,0,0,0,1.287,8.166c2.243,3.3,6.714,6.664,11.926,8.957a75.728,75.728,0,0,0,10.491,3.513,138.854,138.854,0,0,0,22.368,3.184,25.491,25.491,0,0,0,2.886,0,39.235,39.235,0,0,0,2.129-4.041A102.215,102.215,0,0,0,391.8,496.83a96.987,96.987,0,0,0,1.979-14.186c.116-1.6.165-6.962.066-8.776a61.561,61.561,0,0,0-.825-7.737,1.789,1.789,0,0,1-.049-.676,28.618,28.618,0,0,1,2.953-.891l-.544-1.286h0Zm-4.982,2.92c.2,0,.726,5.064.858,8.265a4.432,4.432,0,0,1-.016,1.122c-.132,0-2.788-1.567-4.685-2.755-1.65-1.039-4.784-3.118-5.279-3.513-.165-.116-.149-.132,1.2-.594C384.769,467.946,390.214,466.2,390.395,466.2Zm-11.118,3.662a5.471,5.471,0,0,1,1.435.775,102.377,102.377,0,0,0,10,5.559c.61.264.676.165-.726,1.122a71.868,71.868,0,0,1-11.333,6.087c-.808.363-1.484.643-1.5.643a4.271,4.271,0,0,1,.2-.907,48.649,48.649,0,0,0,1.766-11.6c.016-1.649.016-1.649.165-1.7C379.243,469.859,379.26,469.859,379.277,469.859Zm-2.293.874a35.576,35.576,0,0,1-.1,4.8,41.977,41.977,0,0,1-1.517,7.176,10.877,10.877,0,0,1-.379,1.154,29.027,29.027,0,0,1-3.068-2.986,22.316,22.316,0,0,1-3.035-4.421,13.912,13.912,0,0,1-.924-2.243C368.224,474.032,376.918,470.667,376.984,470.733Zm-10.788,4.24a.063.063,0,0,1,.05.016,3.118,3.118,0,0,1,.247.594,22.27,22.27,0,0,0,2.738,4.9,27.887,27.887,0,0,0,3.81,4.107c.4.33.759.643.808.693.1.1.132.082-2.556,1.105-3.117,1.188-6.516,2.375-10.409,3.629q-1.394.45-2.787.907c-.149.05-.1-.033.33-.709a92.71,92.71,0,0,0,6.516-13.131c.281-.726.561-1.452.611-1.616a.594.594,0,0,1,.363-.429A1.6,1.6,0,0,1,366.2,474.973Zm-3.3,1.369a36.841,36.841,0,0,1-1.617,3.415c-1.6,3.117-3.349,6.186-5.691,9.914-.4.643-.775,1.237-.825,1.3-.082.115-.115.082-.379-.429a15.125,15.125,0,0,1-1.27-3.827,15.4,15.4,0,0,1,.083-4.915c.214-1.023.2-1.006.693-1.254C356,479.476,362.831,476.276,362.9,476.342Zm28.455,1.155v.693a89.756,89.756,0,0,1-.974,12.4c-.1.643-.182,1.171-.2,1.188,0,0-.478-.132-1.039-.3a42.553,42.553,0,0,1-7.588-3.25,33.588,33.588,0,0,1-3.86-2.376c.016-.016.709-.379,1.517-.808a97.171,97.171,0,0,0,9.023-5.295c1.007-.676,2.524-1.765,2.854-2.062Zm-40.909,4.882c.066,0,.049.132-.05.726-.066.429-.148,1.221-.181,1.765a12.2,12.2,0,0,0,1.451,6.631,13.779,13.779,0,0,1,.577,1.254c-.115.1-11.036,3.3-14.467,4.24-1.022.28-1.913.528-1.979.544-.115.033-.132.017-.083-.264.38-2.425,2.227-5.592,4.8-8.264a21.339,21.339,0,0,1,5.428-4.157c1.682-.957,4.272-2.392,4.47-2.458C350.409,482.379,350.425,482.379,350.442,482.379Zm25.733,4.6a6.6,6.6,0,0,1,.891.479,49.687,49.687,0,0,0,12.635,4.916l.38.083-.528.3c-2.194,1.221-9.4,4.223-16.776,6.978-1.072.4-2.128.792-2.326.874a1.177,1.177,0,0,1-.379.115c0-.017.3-.594.676-1.3a81.374,81.374,0,0,0,5.2-11.827C376.076,487.278,376.159,487,376.175,486.981Zm-2.622.858a4.753,4.753,0,0,1-.281.759,104.441,104.441,0,0,1-5.724,11.53c-.61,1.089-1.122,1.964-1.138,1.964s-.511-.3-1.105-.66a33.932,33.932,0,0,1-8.627-7.341l-.3-.363,1.5-.413a107.7,107.7,0,0,0,14.483-5C373.008,488.054,373.536,487.839,373.553,487.839Zm16.3,5.691h0c.016.379-.825,3.778-1.518,6.235-.577,2.062-1.072,3.679-1.979,6.532-.4,1.254-.742,2.293-.759,2.293a1.088,1.088,0,0,1-.214-.049,68.923,68.923,0,0,1-13.411-3.778c-1.155-.462-2.8-1.2-2.9-1.286a19.154,19.154,0,0,1,2.21-1.039c7.505-3.283,15.292-7.011,17.964-8.611A2.153,2.153,0,0,1,389.85,493.53Zm-37.627,1.287c.033.033-2.062,3.052-5,7.159-1.023,1.435-2.21,3.118-2.656,3.745s-1.121,1.617-1.5,2.21L342.375,509l-.743-.627a27.494,27.494,0,0,1-3.068-3.134,13.539,13.539,0,0,1-2.755-5.328c-.181-.792-.181-1.188-.017-1.237.247-.066,4.651-1.105,8.776-2.062,2.293-.528,4.949-1.155,5.906-1.386S352.207,494.817,352.223,494.817Zm2.111.808.528.594a30.962,30.962,0,0,0,7.737,6.334,4.312,4.312,0,0,1,.891.578c-.115.082-10.194,3.662-14.862,5.278-2.622.923-4.784,1.666-4.8,1.666a2.862,2.862,0,0,1-.33-.214l-.3-.215.478-.693c1.551-2.243,3.5-4.7,7.737-9.815Zm13.164,9.419c.016-.016.742.247,1.633.578a52.846,52.846,0,0,0,6.12,1.9,67.793,67.793,0,0,0,9.254,1.6c.363.033.561.066.495.115-.116.066-2.54.874-4.322,1.435-2.838.891-11.5,3.447-18.558,5.477-1.3.379-2.425.693-2.491.709a1.308,1.308,0,0,1-.709-.182,11.959,11.959,0,0,1,.874-1.105,97.887,97.887,0,0,0,6.7-9.007C367.037,505.737,367.5,505.061,367.5,505.044Zm-2.9.083c.017.016-1.155,1.9-3.2,5.13-.875,1.369-1.848,2.92-2.194,3.464-.33.528-.825,1.353-1.105,1.815l-.479.841-.247-.066c-.594-.165-4.767-1.633-5.873-2.078a40.914,40.914,0,0,1-3.844-1.765,16.048,16.048,0,0,1-2.837-1.8c.033-.016,2.293-.627,5.014-1.369,7.225-1.963,11.233-3.1,13.857-3.926A6.6,6.6,0,0,1,364.6,505.127Zm20.537,4.817h.017c.066.165-2.606,7.588-3.58,9.931-.214.528-.3.66-.412.643-.28-.016-4.157-.56-6.516-.907-4.107-.627-11-1.831-12.735-2.227l-.4-.082,2.457-.562c5.279-1.188,7.819-1.831,10.393-2.622a73.536,73.536,0,0,0,9.716-3.744A7.934,7.934,0,0,1,385.132,509.944Z" transform="translate(-332.515 -412.403)" fill="url(#linear-gradient)"/>
    <path id="Path_5903" data-name="Path 5903" d="M480.07,82.735a104.887,104.887,0,0,0-10,3.6,62.431,62.431,0,0,0-11.5,5.774,8.715,8.715,0,0,0-2.227,2.227,1.536,1.536,0,0,0-.1.561l2.21,2.1,5.262,1.683,12.52,2.243,14.318,2.458.149-1.237c-.049,0-.082-.016-.131-.016l-1.881-.3-.379-.676c-1.947-3.431-4.091-7.687-5.345-10.557a54.552,54.552,0,0,1-2.409-6.648c-.28-1.122-.313-1.188-.494-1.2h0Zm-.264.842h.017c.016.016.082.478.148,1.022a34.46,34.46,0,0,0,1.6,6.945c.61,1.815.61,1.716-.1,1.5-1.683-.462-9.221-1.765-14.681-2.524-.874-.116-1.617-.231-1.617-.247-.066-.066,3.943-2.161,5.708-2.986C473.141,86.249,479.344,83.659,479.805,83.577Zm-15.9,7.39.644.214a98.328,98.328,0,0,0,17.139,3.266c.544.05,1.006.1,1.022.1a7.653,7.653,0,0,1-1.039.544c-2.342,1.171-4.915,2.606-6.7,3.712a6.849,6.849,0,0,1-1.072.594c-.066,0-.413-.066-.775-.116l-.66-.1-1.649-1.617c-2.9-2.821-5.18-5-6.054-5.823Zm-.659.511,2.326,2.9c1.27,1.6,2.557,3.167,2.837,3.513a5.42,5.42,0,0,1,.495.644c-.066.049-3.365-.594-5.114-.99-1.8-.412-2.54-.611-3.645-.957l-.907-.3v-.231c.016-1.105,1.419-2.755,3.794-4.437Zm19.762,3.959c.066,0,.148.148.346.594.561,1.237,2.31,4.569,2.738,5.213.132.215.363.231-1.963-.148-5.592-.908-7.39-1.2-7.39-1.237a1.71,1.71,0,0,1,.379-.248,32.215,32.215,0,0,0,5.031-3.481c.379-.313.726-.61.792-.66C482.956,95.437,482.989,95.421,483.006,95.437Z" transform="translate(-439.708 -82.734)" fill="url(#linear-gradient-2)"/>
    <path id="Path_5904" data-name="Path 5904" d="M401.518,167.757a1.644,1.644,0,0,0-.016,1.436,6.514,6.514,0,0,0,1.55,1.831s7.341,7.159,8.232,8.182a22.935,22.935,0,0,1,5.988,15.671,25.378,25.378,0,0,1-2.606,11.86c-3.431,7.489-10.673,15.754-21.84,24.925l1.633-.544a52.467,52.467,0,0,1,5.856-3.481,208.726,208.726,0,0,1,27.234-12.19c15.44-5.807,40.827-12.6,55.277-14.813l1.5-.231-.231-.363a50.849,50.849,0,0,0-3.316-4.668,39.638,39.638,0,0,0-11.712-9.749c-6.467-3.612-14.83-6.433-25.42-8.528-2-.4-6.384-1.155-9.947-1.7-7.555-1.171-12.438-1.979-17.816-2.9-1.93-.33-4.817-.825-6.73-1.237a42.718,42.718,0,0,1-4.371-1.171C403.6,169.621,401.88,169.159,401.518,167.757Zm4.256,4.124a4.531,4.531,0,0,1,.627.2c.627.214,1.435.462,2.392.726q1.086.3,2.177.577c.99.247,1.815.478,1.831.478.116.116,1.782,5.443,2.343,7.489.214.776.379,1.435.363,1.435a3.337,3.337,0,0,1-.412-.643,34.338,34.338,0,0,0-8.512-9.617,7.011,7.011,0,0,1-.808-.643Zm8.116,2.243a6.5,6.5,0,0,1,.89.149c2.8.627,7.836,1.584,11.052,2.128a4.037,4.037,0,0,1,.973.214,1.668,1.668,0,0,1-.445.281c-.544.28-2.739,1.583-3.464,2.078a31.592,31.592,0,0,0-4.668,3.728c-.478.479-.891.874-.891.874s-.1-.28-.182-.627a53.5,53.5,0,0,0-2.952-8.083,7.088,7.088,0,0,1-.33-.759C413.873,174.141,413.873,174.125,413.89,174.125Zm14.285,2.722a6.368,6.368,0,0,1,.594,1.831,27,27,0,0,1,.792,7.555,14.175,14.175,0,0,1-.1,1.419l-.049.165-.858-.28c-1.765-.561-4.635-1.4-7.093-2.1-1.4-.379-2.54-.726-2.54-.759a38.967,38.967,0,0,1,2.92-2.92A76.509,76.509,0,0,1,428.175,176.847Zm1.138.165c.05-.049,6.829,1.122,9.914,1.716,2.293.445,5.625,1.138,5.823,1.221.1.033-.247.231-1.353.726a71.591,71.591,0,0,0-10.8,5.873c-.842.561-1.551,1.023-1.567,1.023a9.027,9.027,0,0,1-.033-1.056,23.044,23.044,0,0,0-1.782-8.974A2.491,2.491,0,0,1,429.313,177.011Zm17.535,3.464a12.4,12.4,0,0,1-.363,2.177,41.356,41.356,0,0,1-4.157,9.535,10.921,10.921,0,0,1-.693,1.122,7.036,7.036,0,0,1-.99-.528,53.741,53.741,0,0,0-6.466-3.167c-.66-.28-1.237-.511-1.254-.544-.115-.1,5.2-3.613,8-5.3C443.153,182.422,446.782,180.409,446.848,180.476Zm1.254.2c.148,0,3.151.825,4.718,1.287a97.331,97.331,0,0,1,11.234,4.107l1.2.545-.841.2A122.956,122.956,0,0,0,445.4,192.7c-.478.2-.907.363-.94.363a4.271,4.271,0,0,1,.346-.841,33.4,33.4,0,0,0,3.183-10.986C448,180.921,448.052,180.673,448.1,180.673Zm-29.89,6.863c.05-.05,2.343.495,3.58.841,1.88.528,5.872,1.864,5.872,1.963,0,.016-.445.4-.973.858-2.161,1.8-4.239,3.695-6.731,6.1-.742.71-1.369,1.287-1.4,1.287s-.049-.1-.033-.231a37.194,37.194,0,0,0-.231-9.947C418.244,187.948,418.2,187.552,418.211,187.536Zm48.184.049a31.572,31.572,0,0,1-1.748,2.722c-.99,1.419-2.441,3.3-5.724,7.423-1.732,2.177-3.679,4.635-4.322,5.46-.66.825-1.2,1.517-1.221,1.517a5.67,5.67,0,0,1-.461-.66,34.09,34.09,0,0,0-6.681-7.374c-.495-.413-1.039-.858-1.22-.99a1.826,1.826,0,0,1-.33-.28c0-.049,2.8-1.254,4.932-2.111,3.728-1.518,8.808-3.332,12.619-4.5C464.235,188.163,466.362,187.552,466.4,187.585Zm1.27.33a3.809,3.809,0,0,1,.94.462,55.954,55.954,0,0,1,11.036,8.281c.874.858,3.035,3.1,3,3.118,0,0-.759.066-1.649.132a162.584,162.584,0,0,0-24.381,4.058c-.577.132-1.089.247-1.122.247s.611-.643,1.419-1.419c5.014-4.833,7.308-7.885,10.013-13.329.379-.808.709-1.5.742-1.551Zm-36.736,3.761c.231.049,2.376,1.056,3.992,1.864,1.485.742,3.712,1.93,3.827,2.029.017.016-.775.429-1.748.907-3.1,1.551-5.757,3.018-8.528,4.7-.792.479-1.452.875-1.468.875-.066,0-.05-.066.4-.875a34.444,34.444,0,0,0,3.349-9.089c.066-.247.132-.412.181-.412Zm-2.144.4a31.562,31.562,0,0,1-.858,3.184,40.624,40.624,0,0,1-2.92,6.7c-.265.462-.66,1.138-.875,1.517l-.412.66-.924-.89a12.112,12.112,0,0,0-3.068-2.26,4.433,4.433,0,0,1-.792-.462c0-.132,2.821-2.689,4.982-4.536C425.47,194.645,428.736,192.023,428.785,192.072Zm13.114,5.394.808.528A62.685,62.685,0,0,1,448.4,202.2c.94.775,2.754,2.408,3.117,2.8l.2.215-1.336.379c-7.555,2.095-13.395,3.959-20.207,6.466-.759.28-1.4.511-1.452.511-.1,0-.182.082,1.518-1.485a72.43,72.43,0,0,0,11.085-12.735Zm-3.448.858c.033.033-2.227,3.216-3.58,5.014-1.617,2.145-4.487,5.74-6.466,8.083-.825.974-1.534,1.782-1.567,1.8-.05.016-.066-.231-.066-.61a13.828,13.828,0,0,0-1.4-5.939c-.379-.759-.445-.94-.363-1.023.313-.28,5.113-3.019,8.149-4.652C435.2,199.908,438.4,198.291,438.452,198.324ZM417.6,203.438a7.309,7.309,0,0,1,.858.429,18.131,18.131,0,0,1,2.837,1.914,4.922,4.922,0,0,1-.957.792c-1.567,1.122-3.943,2.92-5.328,4.025-1.452,1.155-1.5,1.188-1.336.94a30.416,30.416,0,0,0,2.211-3.81,30.776,30.776,0,0,0,1.385-3.448A2.792,2.792,0,0,1,417.6,203.438Zm5.559,4.355c.082-.016.182.132.627.792a11.9,11.9,0,0,1,1.848,4.8l.033.33-2.26.874c-4.042,1.567-7.77,3.118-10.294,4.272-.709.33-1.946.924-2.754,1.32-.808.412-1.468.726-1.468.709s.511-.4,1.138-.858a66.5,66.5,0,0,0,12.4-11.432c.347-.412.66-.792.693-.808Zm-2.557.627a34.855,34.855,0,0,1-3.1,3.5,54.715,54.715,0,0,1-10.244,8.265c-.495.313-.94.594-.989.627-.116.066.033-.1,1.749-1.963,1.088-1.171,1.913-2.161,2.854-3.382a5.577,5.577,0,0,1,1.65-1.567C414.946,212.147,420.538,208.353,420.6,208.419Z" transform="translate(-384.762 -156.391)" fill="url(#radial-gradient)"/>
  </g>
</svg>
