<svg xmlns="http://www.w3.org/2000/svg" viewBox="0 0 49.41 55.16"><defs><style>.cls-1{fill:#cccbca;}.cls-2{fill:#b1d9ea;}.cls-3{fill:#2f2950;}.cls-4{fill:#137ec0;}</style></defs><title>flowiz-icon-color</title><g id="Layer_2" data-name="Layer 2"><g id="FINAL_VERSIONS" data-name="FINAL VERSIONS"><g id="flowiz-icon-colour"><path class="cls-1" d="M43.66,22.41H33.15V20.57a4,4,0,0,0-4-4H18.79V13.79h9.94A5.74,5.74,0,0,0,34.47,8V5.75A5.74,5.74,0,0,0,28.73,0h-23A5.74,5.74,0,0,0,0,5.75V8a5.74,5.74,0,0,0,5.75,5.75h8.44v3.33a4,4,0,0,0,4,4H28.55v1.27H20.68a5.74,5.74,0,0,0-5.74,5.74v2.3a5.75,5.75,0,0,0,5.74,5.75H37.75V47H36.2a5.75,5.75,0,0,0-5.75-5.63H8A5.74,5.74,0,0,0,2.3,47.11v2.3A5.75,5.75,0,0,0,8,55.16H30.45a5.73,5.73,0,0,0,5.31-3.57h2.56a4,4,0,0,0,4-4V36.2h1.32a5.75,5.75,0,0,0,5.75-5.75v-2.3A5.74,5.74,0,0,0,43.66,22.41ZM4.6,8V5.75A1.14,1.14,0,0,1,5.75,4.6h23a1.15,1.15,0,0,1,1.15,1.15V8a1.15,1.15,0,0,1-1.15,1.15h-23A1.14,1.14,0,0,1,4.6,8Zm27,41.37a1.16,1.16,0,0,1-1.15,1.15H8a1.16,1.16,0,0,1-1.15-1.15v-2.3A1.16,1.16,0,0,1,8,46H30.45a1.16,1.16,0,0,1,1.15,1.15Zm13.21-19a1.15,1.15,0,0,1-1.15,1.15h-23a1.16,1.16,0,0,1-1.15-1.15v-2.3A1.16,1.16,0,0,1,20.68,27h23a1.15,1.15,0,0,1,1.15,1.15Z"/><path class="cls-2" d="M18.79,13.79h9.94A5.74,5.74,0,0,0,34.47,8V5.75A5.74,5.74,0,0,0,28.73,0h-23A5.74,5.74,0,0,0,0,5.75V8a5.74,5.74,0,0,0,5.75,5.75h13ZM4.6,8V5.75A1.14,1.14,0,0,1,5.75,4.6h23a1.15,1.15,0,0,1,1.15,1.15V8a1.15,1.15,0,0,1-1.15,1.15h-23A1.14,1.14,0,0,1,4.6,8Z"/><path class="cls-3" d="M36.2,47a5.75,5.75,0,0,0-5.75-5.63H8A5.74,5.74,0,0,0,2.3,47.11v2.3A5.75,5.75,0,0,0,8,55.16H30.45a5.73,5.73,0,0,0,5.31-3.57C36.47,50.88,36.2,47,36.2,47Zm-4.6,2.41a1.16,1.16,0,0,1-1.15,1.15H8a1.16,1.16,0,0,1-1.15-1.15v-2.3A1.16,1.16,0,0,1,8,46H30.45a1.16,1.16,0,0,1,1.15,1.15Z"/><path class="cls-4" d="M28.55,22.41H20.68a5.74,5.74,0,0,0-5.74,5.74v2.3a5.75,5.75,0,0,0,5.74,5.75h23a5.75,5.75,0,0,0,5.75-5.75v-2.3a5.74,5.74,0,0,0-5.75-5.74H28.55Zm16.26,8a1.15,1.15,0,0,1-1.15,1.15h-23a1.16,1.16,0,0,1-1.15-1.15v-2.3A1.16,1.16,0,0,1,20.68,27h23a1.15,1.15,0,0,1,1.15,1.15Z"/></g></g></g></svg>