<svg id="_1f8cfb61c8670a3c33fec2a9e3c642a5" data-name="1f8cfb61c8670a3c33fec2a9e3c642a5" xmlns="http://www.w3.org/2000/svg" width="106.44" height="98.477" viewBox="0 0 106.44 98.477">
  <path id="Path_5877" data-name="Path 5877" d="M101.995,25.306,49.567,77.7l65.906-28.1A47.9,47.9,0,0,0,101.995,25.306ZM63.1,9.7a57.143,57.143,0,0,0-20.484,3.776l-7.049,54.8L70.7,10.192A62.8,62.8,0,0,0,63.1,9.7Zm52.873,42.912-62.409,32.3,58.564-6.437a45.575,45.575,0,0,0,3.845-25.859ZM92.958,99.892A51.076,51.076,0,0,0,109.8,82.819L54.911,92.892ZM73.929,10.734,43.377,71.963l56.685-48.475A54.8,54.8,0,0,0,73.929,10.734Zm-6.365,97.442A56.8,56.8,0,0,0,84.3,104.3l-30.737-3.364ZM14.5,38.743A45.785,45.785,0,0,0,10,54.6l8.276,13.678ZM38,15.515A52.411,52.411,0,0,0,19.189,31.04l7.755,35.992Z" transform="translate(-10 -9.7)" fill="#c54131"/>
</svg>
