<svg xmlns="http://www.w3.org/2000/svg" width="130.691" height="94.435" viewBox="0 0 130.691 94.435">
  <g id="Layer_2" data-name="Layer 2" transform="translate(0 0.01)">
    <g id="Layer_1" data-name="Layer 1" transform="translate(0 -0.01)">
      <path id="Path_5654" data-name="Path 5654" d="M31.6,94.425C10.861,94.425,0,78.406,0,62.583A27.257,27.257,0,0,1,20.464,36.025v-.433A18.339,18.339,0,0,1,47.735,19.573C52.529,9.579,59.728,0,77.284,0a32.722,32.722,0,0,1,22.7,8.261,2.8,2.8,0,1,1-3.788,4.11C91.318,7.874,84.958,5.6,77.284,5.6c-16.019,0-21.372,9.086-25.845,19.22a2.8,2.8,0,0,1-4.361.992A12.762,12.762,0,0,0,26.251,37.744a2.8,2.8,0,0,1-2.32,3.243,21.708,21.708,0,0,0-18.339,21.6c0,12.58,8.135,26.251,26.013,26.251a51.565,51.565,0,0,0,37.531-16.62,2.792,2.792,0,0,1,4.333,3.522A56.261,56.261,0,0,1,31.6,94.425Z" transform="translate(0 0.01)" fill="#ffc220"/>
      <path id="Path_5655" data-name="Path 5655" d="M83.449,75.8H52.8a2.8,2.8,0,1,1,0-5.591H83.449a21.82,21.82,0,0,0,21.764-21.834,21.568,21.568,0,0,0-1.817-8.75,2.8,2.8,0,0,1,5.13-2.236A27.467,27.467,0,0,1,83.449,75.8Z" transform="translate(19.89 14.218)" fill="#ffc220"/>
      <path id="Path_5656" data-name="Path 5656" d="M106.374,2.936,39.88,35.9c-3.005,1.51-2.8,2.684.6,3.005L62.022,41,59.813,64.3c-.321,3.355,1.216,4.11,3.55,1.691L80.137,48.56l20.478,15c2.7,2,5.27.895,5.591-2.446l5.186-54.822C111.713,2.95,109.379,1.427,106.374,2.936ZM66.9,54.319,68.06,42.13,107.981,5.969Z" transform="translate(15.026 0.95)" fill="#ffc220"/>
    </g>
  </g>
</svg>
